<mxfile host="app.diagrams.net" modified="2024-06-22T16:55:48.323Z" agent="Mozilla/5.0 (Windows NT 10.0; Win64; x64) AppleWebKit/537.36 (KHTML, like Gecko) Chrome/122.0.0.0 Safari/537.36" etag="PCVyXmzzqizhjRY4la7M" version="24.6.0" type="github">
  <diagram name="Page-1" id="mWm-_su0rxY8fqlc6_35">
    <mxGraphModel dx="989" dy="597" grid="1" gridSize="10" guides="1" tooltips="1" connect="1" arrows="1" fold="1" page="1" pageScale="1" pageWidth="827" pageHeight="1169" math="0" shadow="0">
      <root>
        <mxCell id="0" />
        <mxCell id="1" parent="0" />
        <mxCell id="i1R-OgFujUxkSIKsWAl5-4" value="" style="whiteSpace=wrap;html=1;aspect=fixed;" parent="1" vertex="1">
          <mxGeometry x="180" y="40" width="350" height="350" as="geometry" />
        </mxCell>
        <mxCell id="i1R-OgFujUxkSIKsWAl5-9" style="rounded=0;orthogonalLoop=1;jettySize=auto;html=1;entryX=0;entryY=0.5;entryDx=0;entryDy=0;" parent="1" source="i1R-OgFujUxkSIKsWAl5-1" target="i1R-OgFujUxkSIKsWAl5-5" edge="1">
          <mxGeometry relative="1" as="geometry" />
        </mxCell>
        <mxCell id="i1R-OgFujUxkSIKsWAl5-1" value="User" style="shape=umlActor;html=1;verticalLabelPosition=bottom;verticalAlign=top;align=center;" parent="1" vertex="1">
          <mxGeometry x="80" y="150" width="30" height="60" as="geometry" />
        </mxCell>
        <mxCell id="i1R-OgFujUxkSIKsWAl5-5" value="Show Routes, Triggers and Actions" style="shape=ellipse;html=1;strokeWidth=3;fontStyle=1;whiteSpace=wrap;align=center;perimeter=ellipsePerimeter;" parent="1" vertex="1">
          <mxGeometry x="290" y="80" width="120" height="60" as="geometry" />
        </mxCell>
        <mxCell id="i1R-OgFujUxkSIKsWAl5-6" value="Browse&amp;nbsp;&lt;div&gt;Complex Actions&lt;/div&gt;" style="shape=ellipse;html=1;strokeWidth=3;fontStyle=1;whiteSpace=wrap;align=center;perimeter=ellipsePerimeter;" parent="1" vertex="1">
          <mxGeometry x="290" y="180" width="120" height="60" as="geometry" />
        </mxCell>
        <mxCell id="i1R-OgFujUxkSIKsWAl5-7" value="Show&lt;div&gt;Actions Artefacts&lt;/div&gt;" style="shape=ellipse;html=1;strokeWidth=3;fontStyle=1;whiteSpace=wrap;align=center;perimeter=ellipsePerimeter;" parent="1" vertex="1">
          <mxGeometry x="290" y="280" width="120" height="60" as="geometry" />
        </mxCell>
        <mxCell id="i1R-OgFujUxkSIKsWAl5-11" style="rounded=0;orthogonalLoop=1;jettySize=auto;html=1;entryX=0;entryY=0.5;entryDx=0;entryDy=0;" parent="1" target="i1R-OgFujUxkSIKsWAl5-6" edge="1">
          <mxGeometry relative="1" as="geometry">
            <mxPoint x="110" y="195" as="sourcePoint" />
            <mxPoint x="290" y="130" as="targetPoint" />
          </mxGeometry>
        </mxCell>
        <mxCell id="i1R-OgFujUxkSIKsWAl5-12" style="rounded=0;orthogonalLoop=1;jettySize=auto;html=1;entryX=0;entryY=0.5;entryDx=0;entryDy=0;" parent="1" target="i1R-OgFujUxkSIKsWAl5-7" edge="1">
          <mxGeometry relative="1" as="geometry">
            <mxPoint x="120" y="220" as="sourcePoint" />
            <mxPoint x="300" y="220" as="targetPoint" />
          </mxGeometry>
        </mxCell>
        <mxCell id="i1R-OgFujUxkSIKsWAl5-13" value="PIS&lt;div&gt;Database&lt;/div&gt;" style="shape=cylinder3;whiteSpace=wrap;html=1;boundedLbl=1;backgroundOutline=1;size=15;" parent="1" vertex="1">
          <mxGeometry x="620" y="170" width="70" height="90" as="geometry" />
        </mxCell>
        <mxCell id="i1R-OgFujUxkSIKsWAl5-17" style="edgeStyle=orthogonalEdgeStyle;rounded=0;orthogonalLoop=1;jettySize=auto;html=1;exitX=1;exitY=0.5;exitDx=0;exitDy=0;entryX=0;entryY=0.5;entryDx=0;entryDy=0;entryPerimeter=0;" parent="1" source="i1R-OgFujUxkSIKsWAl5-4" target="i1R-OgFujUxkSIKsWAl5-13" edge="1">
          <mxGeometry relative="1" as="geometry" />
        </mxCell>
      </root>
    </mxGraphModel>
  </diagram>
</mxfile>
